<svg height="56" viewBox="0 0 56 56" width="56" xmlns="http://www.w3.org/2000/svg"><path d="m49.3364121 8.76804098 1.1515589 4.29764152c.3148993 1.1752201-.0648892 2.4209209-.966486 3.2207496l-.1550681.1290878c-1.5346099 1.1980214-2.2894284 3.2387541-1.7538054 5.2377262.5201964 1.9413994 2.1141959 3.3083216 3.9717684 3.6329798l.2154589.0328085c1.2359884.160565 2.2530119 1.0509291 2.5755973 2.254834l1.172633 4.3763924c.5717673 2.1338644-.6945627 4.3272122-2.8284271 4.8989795l-40.5688847 10.8703999c-2.1338644.5717672-4.32721222-.6945627-4.89897947-2.8284271l-1.10325787-4.1174775c-.33601122-1.254011.0538768-2.5842991.99797859-3.4582974l.16245247-.1413501c1.47582814-1.2064082 2.19200789-3.2073335 1.6666274-5.1680802-.526252-1.9639992-2.15145292-3.3400683-4.0367462-3.6438933-1.34562882-.2168552-2.43852914-1.2035837-2.79129704-2.5201314l-1.10741443-4.13299c-.57176725-2.1338644.69456271-4.3272122 2.82842712-4.8989795l40.56888473-10.87039985c2.1338644-.57176724 4.3272122.69456271 4.8989795 2.82842713zm-4.1654056.60714424-40.21996706 10.77690548c-.55532186.1487981-.88487452.7196-.73607648 1.2749219l.79114835 2.9526058c3.45057774.695468 6.26796869 3.2823944 7.19999709 6.7607715.9319385 3.4780421-.2141443 7.1270976-2.85498269 9.4549824l.79113639 2.9526219c.1487959.5553224.7195966.8848772 1.2749191.7360813l40.2199683-10.7769162c.5553203-.1487977.884873-.7195971.7360775-1.2749181l-.7911063-2.9525085c-3.4441794-.6937303-6.2665981-3.2772197-7.2000391-6.7608688-.9329772-3.4819181.2175759-7.1306693 2.8549858-9.4550633l-.7911396-2.952541c-.1487989-.55532071-.7196002-.88487221-1.2749213-.73607438zm-1.2833976 21.55838178c.4288254 1.6003983-.5209221 3.2454092-2.1213204 3.6742346s-3.2454091-.520922-3.6742346-2.1213203c-.4288254-1.6003983.5209221-3.2454092 2.1213204-3.6742346 1.6003983-.4288255 3.2454091.520922 3.6742346 2.1213203zm-2.0705524-7.7274066c.4288255 1.6003983-.520922 3.2454092-2.1213203 3.6742346s-3.2454092-.520922-3.6742346-2.1213203c-.4288255-1.6003984.520922-3.2454092 2.1213203-3.6742347 1.6003983-.4288254 3.2454092.5209221 3.6742346 2.1213204zm-2.0705523-7.7274066c.4288254 1.6003983-.5209221 3.2454092-2.1213204 3.6742346s-3.2454092-.520922-3.6742346-2.1213204c-.4288254-1.6003983.520922-3.2454091 2.1213203-3.6742346 1.6003984-.4288254 3.2454092.5209221 3.6742347 2.1213204zm-10.363901-13.13208188 2.5519914 3.64460567c.0376428.05375947.0734564.10840294.1074385.163845l-24.41526458 6.54205041 16.18492078-11.33280351c1.8096207-1.26711008 4.3038038-.8273183 5.5709139.98230243z" fill-rule="evenodd" transform="translate(0 4)"/></svg>